<?xml version="1.0" encoding="utf-8" standalone="no"?>
<!DOCTYPE svg PUBLIC "-//W3C//DTD SVG 1.1//EN"
  "http://www.w3.org/Graphics/SVG/1.1/DTD/svg11.dtd">
<svg xmlns:xlink="http://www.w3.org/1999/xlink" width="345.826772pt" height="60.48pt" viewBox="0 0 345.826772 60.48" xmlns="http://www.w3.org/2000/svg" version="1.1">
 <metadata>
  <rdf:RDF xmlns:dc="http://purl.org/dc/elements/1.1/" xmlns:cc="http://creativecommons.org/ns#" xmlns:rdf="http://www.w3.org/1999/02/22-rdf-syntax-ns#">
   <cc:Work>
    <dc:type rdf:resource="http://purl.org/dc/dcmitype/StillImage"/>
    <dc:date>2026-09-12T12:35:04.691915</dc:date>
    <dc:format>image/svg+xml</dc:format>
    <dc:creator>
     <cc:Agent>
      <dc:title>Matplotlib v3.10.9, https://matplotlib.org/</dc:title>
     </cc:Agent>
    </dc:creator>
   </cc:Work>
  </rdf:RDF>
 </metadata>
 <defs>
  <style type="text/css">*{stroke-linejoin: round; stroke-linecap: butt}</style>
 </defs>
 <g id="figure_1">
  <g id="patch_1">
   <path d="M 0 60.48 
L 345.826772 60.48 
L 345.826772 0 
L 0 0 
z
" style="fill: #ffffff"/>
  </g>
  <g id="axes_1">
   <g id="table_1">
    <g id="patch_2">
     <path d="M 1.729134 23.04 
L 70.202835 23.04 
L 70.202835 8.64 
L 1.729134 8.64 
z
" style="fill: #eaf0f5; stroke: #dddddd; stroke-width: 0.3; stroke-linejoin: miter"/>
    </g>
    <g id="text_1">
     <text style="font-weight: 700; font-size: 8.5px; font-family: 'Arial', 'Helvetica', 'DejaVu Sans', sans-serif; text-anchor: middle" x="35.965984" y="18.043359" transform="rotate(-0 35.965984 18.043359)">Attack</text>
    </g>
    <g id="patch_3">
     <path d="M 70.202835 23.04 
L 138.676535 23.04 
L 138.676535 8.64 
L 70.202835 8.64 
z
" style="fill: #eaf0f5; stroke: #dddddd; stroke-width: 0.3; stroke-linejoin: miter"/>
    </g>
    <g id="text_2">
     <text style="font-weight: 700; font-size: 8.5px; font-family: 'Arial', 'Helvetica', 'DejaVu Sans', sans-serif; text-anchor: middle" x="104.439685" y="18.039375" transform="rotate(-0 104.439685 18.039375)">Trigger %</text>
    </g>
    <g id="patch_4">
     <path d="M 138.676535 23.04 
L 207.150236 23.04 
L 207.150236 8.64 
L 138.676535 8.64 
z
" style="fill: #eaf0f5; stroke: #dddddd; stroke-width: 0.3; stroke-linejoin: miter"/>
    </g>
    <g id="text_3">
     <text style="font-weight: 700; font-size: 8.5px; font-family: 'Arial', 'Helvetica', 'DejaVu Sans', sans-serif; text-anchor: middle" x="172.913386" y="18.095156" transform="rotate(-0 172.913386 18.095156)">Drop %</text>
    </g>
    <g id="patch_5">
     <path d="M 207.150236 23.04 
L 275.623937 23.04 
L 275.623937 8.64 
L 207.150236 8.64 
z
" style="fill: #eaf0f5; stroke: #dddddd; stroke-width: 0.3; stroke-linejoin: miter"/>
    </g>
    <g id="text_4">
     <text style="font-weight: 700; font-size: 8.5px; font-family: 'Arial', 'Helvetica', 'DejaVu Sans', sans-serif; text-anchor: middle" x="241.387087" y="18.043359" transform="rotate(-0 241.387087 18.043359)">TC %</text>
    </g>
    <g id="patch_6">
     <path d="M 275.623937 23.04 
L 344.097638 23.04 
L 344.097638 8.64 
L 275.623937 8.64 
z
" style="fill: #eaf0f5; stroke: #dddddd; stroke-width: 0.3; stroke-linejoin: miter"/>
    </g>
    <g id="text_5">
     <text style="font-weight: 700; font-size: 8.5px; font-family: 'Arial', 'Helvetica', 'DejaVu Sans', sans-serif; text-anchor: middle" x="309.860787" y="18.043359" transform="rotate(-0 309.860787 18.043359)">TCP %</text>
    </g>
    <g id="patch_7">
     <path d="M 1.729134 37.44 
L 70.202835 37.44 
L 70.202835 23.04 
L 1.729134 23.04 
z
" style="fill: #ffffff; stroke: #dddddd; stroke-width: 0.3; stroke-linejoin: miter"/>
    </g>
    <g id="text_6">
     <text style="font-size: 8.5px; font-family: 'Arial', 'Helvetica', 'DejaVu Sans', sans-serif; text-anchor: middle" x="35.965984" y="32.437383" transform="rotate(-0 35.965984 32.437383)">Fixed</text>
    </g>
    <g id="patch_8">
     <path d="M 70.202835 37.44 
L 138.676535 37.44 
L 138.676535 23.04 
L 70.202835 23.04 
z
" style="fill: #ffffff; stroke: #dddddd; stroke-width: 0.3; stroke-linejoin: miter"/>
    </g>
    <g id="text_7">
     <text style="font-size: 8.5px; font-family: 'Arial', 'Helvetica', 'DejaVu Sans', sans-serif; text-anchor: middle" x="104.439685" y="32.437383" transform="rotate(-0 104.439685 32.437383)">0.0</text>
    </g>
    <g id="patch_9">
     <path d="M 138.676535 37.44 
L 207.150236 37.44 
L 207.150236 23.04 
L 138.676535 23.04 
z
" style="fill: #ffffff; stroke: #dddddd; stroke-width: 0.3; stroke-linejoin: miter"/>
    </g>
    <g id="text_8">
     <text style="font-size: 8.5px; font-family: 'Arial', 'Helvetica', 'DejaVu Sans', sans-serif; text-anchor: middle" x="172.913386" y="32.437383" transform="rotate(-0 172.913386 32.437383)">0.0</text>
    </g>
    <g id="patch_10">
     <path d="M 207.150236 37.44 
L 275.623937 37.44 
L 275.623937 23.04 
L 207.150236 23.04 
z
" style="fill: #ffffff; stroke: #dddddd; stroke-width: 0.3; stroke-linejoin: miter"/>
    </g>
    <g id="text_9">
     <text style="font-size: 8.5px; font-family: 'Arial', 'Helvetica', 'DejaVu Sans', sans-serif; text-anchor: middle" x="241.387087" y="32.437383" transform="rotate(-0 241.387087 32.437383)">0.0</text>
    </g>
    <g id="patch_11">
     <path d="M 275.623937 37.44 
L 344.097638 37.44 
L 344.097638 23.04 
L 275.623937 23.04 
z
" style="fill: #ffffff; stroke: #dddddd; stroke-width: 0.3; stroke-linejoin: miter"/>
    </g>
    <g id="text_10">
     <text style="font-size: 8.5px; font-family: 'Arial', 'Helvetica', 'DejaVu Sans', sans-serif; text-anchor: middle" x="309.860787" y="32.437383" transform="rotate(-0 309.860787 32.437383)">0.0</text>
    </g>
    <g id="patch_12">
     <path d="M 1.729134 51.84 
L 70.202835 51.84 
L 70.202835 37.44 
L 1.729134 37.44 
z
" style="fill: #f8f9fa; stroke: #dddddd; stroke-width: 0.3; stroke-linejoin: miter"/>
    </g>
    <g id="text_11">
     <text style="font-size: 8.5px; font-family: 'Arial', 'Helvetica', 'DejaVu Sans', sans-serif; text-anchor: middle" x="35.965984" y="46.837383" transform="rotate(-0 35.965984 46.837383)">Flood</text>
    </g>
    <g id="patch_13">
     <path d="M 70.202835 51.84 
L 138.676535 51.84 
L 138.676535 37.44 
L 70.202835 37.44 
z
" style="fill: #f8f9fa; stroke: #dddddd; stroke-width: 0.3; stroke-linejoin: miter"/>
    </g>
    <g id="text_12">
     <text style="font-size: 8.5px; font-family: 'Arial', 'Helvetica', 'DejaVu Sans', sans-serif; text-anchor: middle" x="104.439685" y="46.837383" transform="rotate(-0 104.439685 46.837383)">100.0</text>
    </g>
    <g id="patch_14">
     <path d="M 138.676535 51.84 
L 207.150236 51.84 
L 207.150236 37.44 
L 138.676535 37.44 
z
" style="fill: #f8f9fa; stroke: #dddddd; stroke-width: 0.3; stroke-linejoin: miter"/>
    </g>
    <g id="text_13">
     <text style="font-size: 8.5px; font-family: 'Arial', 'Helvetica', 'DejaVu Sans', sans-serif; text-anchor: middle" x="172.913386" y="46.837383" transform="rotate(-0 172.913386 46.837383)">100.0</text>
    </g>
    <g id="patch_15">
     <path d="M 207.150236 51.84 
L 275.623937 51.84 
L 275.623937 37.44 
L 207.150236 37.44 
z
" style="fill: #f8f9fa; stroke: #dddddd; stroke-width: 0.3; stroke-linejoin: miter"/>
    </g>
    <g id="text_14">
     <text style="font-size: 8.5px; font-family: 'Arial', 'Helvetica', 'DejaVu Sans', sans-serif; text-anchor: middle" x="241.387087" y="46.837383" transform="rotate(-0 241.387087 46.837383)">100.0</text>
    </g>
    <g id="patch_16">
     <path d="M 275.623937 51.84 
L 344.097638 51.84 
L 344.097638 37.44 
L 275.623937 37.44 
z
" style="fill: #f8f9fa; stroke: #dddddd; stroke-width: 0.3; stroke-linejoin: miter"/>
    </g>
    <g id="text_15">
     <text style="font-size: 8.5px; font-family: 'Arial', 'Helvetica', 'DejaVu Sans', sans-serif; text-anchor: middle" x="309.860787" y="46.837383" transform="rotate(-0 309.860787 46.837383)">100.0</text>
    </g>
   </g>
  </g>
 </g>
</svg>
