<?xml version="1.0" encoding="utf-8" standalone="no"?>
<!DOCTYPE svg PUBLIC "-//W3C//DTD SVG 1.1//EN"
  "http://www.w3.org/Graphics/SVG/1.1/DTD/svg11.dtd">
<svg xmlns:xlink="http://www.w3.org/1999/xlink" width="345.826772pt" height="302.4pt" viewBox="0 0 345.826772 302.4" xmlns="http://www.w3.org/2000/svg" version="1.1">
 <metadata>
  <rdf:RDF xmlns:dc="http://purl.org/dc/elements/1.1/" xmlns:cc="http://creativecommons.org/ns#" xmlns:rdf="http://www.w3.org/1999/02/22-rdf-syntax-ns#">
   <cc:Work>
    <dc:type rdf:resource="http://purl.org/dc/dcmitype/StillImage"/>
    <dc:date>2026-09-12T12:35:05.864280</dc:date>
    <dc:format>image/svg+xml</dc:format>
    <dc:creator>
     <cc:Agent>
      <dc:title>Matplotlib v3.10.9, https://matplotlib.org/</dc:title>
     </cc:Agent>
    </dc:creator>
   </cc:Work>
  </rdf:RDF>
 </metadata>
 <defs>
  <style type="text/css">*{stroke-linejoin: round; stroke-linecap: butt}</style>
 </defs>
 <g id="figure_1">
  <g id="patch_1">
   <path d="M 0 302.4 
L 345.826772 302.4 
L 345.826772 0 
L 0 0 
z
" style="fill: #ffffff"/>
  </g>
  <g id="axes_1">
   <g id="table_1">
    <g id="patch_2">
     <path d="M 1.729134 43.2 
L 66.77915 43.2 
L 66.77915 28.8 
L 1.729134 28.8 
z
" style="fill: #eaf0f5; stroke: #dddddd; stroke-width: 0.3; stroke-linejoin: miter"/>
    </g>
    <g id="text_1">
     <text style="font-weight: 700; font-size: 8.5px; font-family: 'Arial', 'Helvetica', 'DejaVu Sans', sans-serif; text-anchor: middle" x="34.254142" y="38.147578" transform="rotate(-0 34.254142 38.147578)">Policy</text>
    </g>
    <g id="patch_3">
     <path d="M 66.77915 43.2 
L 138.676535 43.2 
L 138.676535 28.8 
L 66.77915 28.8 
z
" style="fill: #eaf0f5; stroke: #dddddd; stroke-width: 0.3; stroke-linejoin: miter"/>
    </g>
    <g id="text_2">
     <text style="font-weight: 700; font-size: 8.5px; font-family: 'Arial', 'Helvetica', 'DejaVu Sans', sans-serif; text-anchor: middle" x="102.727843" y="38.203359" transform="rotate(-0 102.727843 38.203359)">Traffic /s</text>
    </g>
    <g id="patch_4">
     <path d="M 138.676535 43.2 
L 200.302866 43.2 
L 200.302866 28.8 
L 138.676535 28.8 
z
" style="fill: #eaf0f5; stroke: #dddddd; stroke-width: 0.3; stroke-linejoin: miter"/>
    </g>
    <g id="text_3">
     <text style="font-weight: 700; font-size: 8.5px; font-family: 'Arial', 'Helvetica', 'DejaVu Sans', sans-serif; text-anchor: middle" x="169.489701" y="38.203359" transform="rotate(-0 169.489701 38.203359)">B5 state %</text>
    </g>
    <g id="patch_5">
     <path d="M 200.302866 43.2 
L 244.810772 43.2 
L 244.810772 28.8 
L 200.302866 28.8 
z
" style="fill: #eaf0f5; stroke: #dddddd; stroke-width: 0.3; stroke-linejoin: miter"/>
    </g>
    <g id="text_4">
     <text style="font-weight: 700; font-size: 8.5px; font-family: 'Arial', 'Helvetica', 'DejaVu Sans', sans-serif; text-anchor: middle" x="222.556819" y="38.203359" transform="rotate(-0 222.556819 38.203359)">Mal. %</text>
    </g>
    <g id="patch_6">
     <path d="M 244.810772 43.2 
L 296.166047 43.2 
L 296.166047 28.8 
L 244.810772 28.8 
z
" style="fill: #eaf0f5; stroke: #dddddd; stroke-width: 0.3; stroke-linejoin: miter"/>
    </g>
    <g id="text_5">
     <text style="font-weight: 700; font-size: 8.5px; font-family: 'Arial', 'Helvetica', 'DejaVu Sans', sans-serif; text-anchor: middle" x="270.488409" y="38.203359" transform="rotate(-0 270.488409 38.203359)">Cache %</text>
    </g>
    <g id="patch_7">
     <path d="M 296.166047 43.2 
L 344.097638 43.2 
L 344.097638 28.8 
L 296.166047 28.8 
z
" style="fill: #eaf0f5; stroke: #dddddd; stroke-width: 0.3; stroke-linejoin: miter"/>
    </g>
    <g id="text_6">
     <text style="font-weight: 700; font-size: 8.5px; font-family: 'Arial', 'Helvetica', 'DejaVu Sans', sans-serif; text-anchor: middle" x="320.131843" y="38.203359" transform="rotate(-0 320.131843 38.203359)">None %</text>
    </g>
    <g id="patch_8">
     <path d="M 1.729134 57.6 
L 66.77915 57.6 
L 66.77915 43.2 
L 1.729134 43.2 
z
" style="fill: #ffffff; stroke: #dddddd; stroke-width: 0.3; stroke-linejoin: miter"/>
    </g>
    <g id="text_7">
     <text style="font-size: 8.5px; font-family: 'Arial', 'Helvetica', 'DejaVu Sans', sans-serif; text-anchor: middle" x="34.254142" y="52.597383" transform="rotate(-0 34.254142 52.597383)">B0</text>
    </g>
    <g id="patch_9">
     <path d="M 66.77915 57.6 
L 138.676535 57.6 
L 138.676535 43.2 
L 66.77915 43.2 
z
" style="fill: #ffffff; stroke: #dddddd; stroke-width: 0.3; stroke-linejoin: miter"/>
    </g>
    <g id="text_8">
     <text style="font-size: 8.5px; font-family: 'Arial', 'Helvetica', 'DejaVu Sans', sans-serif; text-anchor: middle" x="102.727843" y="52.560195" transform="rotate(-0 102.727843 52.560195)">Benign 12</text>
    </g>
    <g id="patch_10">
     <path d="M 138.676535 57.6 
L 200.302866 57.6 
L 200.302866 43.2 
L 138.676535 43.2 
z
" style="fill: #ffffff; stroke: #dddddd; stroke-width: 0.3; stroke-linejoin: miter"/>
    </g>
    <g id="text_9">
     <text style="font-size: 8.5px; font-family: 'Arial', 'Helvetica', 'DejaVu Sans', sans-serif; text-anchor: middle" x="169.489701" y="52.597383" transform="rotate(-0 169.489701 52.597383)">0.0</text>
    </g>
    <g id="patch_11">
     <path d="M 200.302866 57.6 
L 244.810772 57.6 
L 244.810772 43.2 
L 200.302866 43.2 
z
" style="fill: #ffffff; stroke: #dddddd; stroke-width: 0.3; stroke-linejoin: miter"/>
    </g>
    <g id="text_10">
     <text style="font-size: 8.5px; font-family: 'Arial', 'Helvetica', 'DejaVu Sans', sans-serif; text-anchor: middle" x="222.556819" y="52.597383" transform="rotate(-0 222.556819 52.597383)">0.0</text>
    </g>
    <g id="patch_12">
     <path d="M 244.810772 57.6 
L 296.166047 57.6 
L 296.166047 43.2 
L 244.810772 43.2 
z
" style="fill: #ffffff; stroke: #dddddd; stroke-width: 0.3; stroke-linejoin: miter"/>
    </g>
    <g id="text_11">
     <text style="font-size: 8.5px; font-family: 'Arial', 'Helvetica', 'DejaVu Sans', sans-serif; text-anchor: middle" x="270.488409" y="52.597383" transform="rotate(-0 270.488409 52.597383)">0.0</text>
    </g>
    <g id="patch_13">
     <path d="M 296.166047 57.6 
L 344.097638 57.6 
L 344.097638 43.2 
L 296.166047 43.2 
z
" style="fill: #ffffff; stroke: #dddddd; stroke-width: 0.3; stroke-linejoin: miter"/>
    </g>
    <g id="text_12">
     <text style="font-size: 8.5px; font-family: 'Arial', 'Helvetica', 'DejaVu Sans', sans-serif; text-anchor: middle" x="320.131843" y="52.597383" transform="rotate(-0 320.131843 52.597383)">0.2</text>
    </g>
    <g id="patch_14">
     <path d="M 1.729134 72 
L 66.77915 72 
L 66.77915 57.6 
L 1.729134 57.6 
z
" style="fill: #f8f9fa; stroke: #dddddd; stroke-width: 0.3; stroke-linejoin: miter"/>
    </g>
    <g id="text_13">
     <text style="font-size: 8.5px; font-family: 'Arial', 'Helvetica', 'DejaVu Sans', sans-serif; text-anchor: middle" x="34.254142" y="66.997383" transform="rotate(-0 34.254142 66.997383)">B0</text>
    </g>
    <g id="patch_15">
     <path d="M 66.77915 72 
L 138.676535 72 
L 138.676535 57.6 
L 66.77915 57.6 
z
" style="fill: #f8f9fa; stroke: #dddddd; stroke-width: 0.3; stroke-linejoin: miter"/>
    </g>
    <g id="text_14">
     <text style="font-size: 8.5px; font-family: 'Arial', 'Helvetica', 'DejaVu Sans', sans-serif; text-anchor: middle" x="102.727843" y="66.960195" transform="rotate(-0 102.727843 66.960195)">Benign 200</text>
    </g>
    <g id="patch_16">
     <path d="M 138.676535 72 
L 200.302866 72 
L 200.302866 57.6 
L 138.676535 57.6 
z
" style="fill: #f8f9fa; stroke: #dddddd; stroke-width: 0.3; stroke-linejoin: miter"/>
    </g>
    <g id="text_15">
     <text style="font-size: 8.5px; font-family: 'Arial', 'Helvetica', 'DejaVu Sans', sans-serif; text-anchor: middle" x="169.489701" y="66.997383" transform="rotate(-0 169.489701 66.997383)">100.0</text>
    </g>
    <g id="patch_17">
     <path d="M 200.302866 72 
L 244.810772 72 
L 244.810772 57.6 
L 200.302866 57.6 
z
" style="fill: #f8f9fa; stroke: #dddddd; stroke-width: 0.3; stroke-linejoin: miter"/>
    </g>
    <g id="text_16">
     <text style="font-size: 8.5px; font-family: 'Arial', 'Helvetica', 'DejaVu Sans', sans-serif; text-anchor: middle" x="222.556819" y="66.997383" transform="rotate(-0 222.556819 66.997383)">0.0</text>
    </g>
    <g id="patch_18">
     <path d="M 244.810772 72 
L 296.166047 72 
L 296.166047 57.6 
L 244.810772 57.6 
z
" style="fill: #f8f9fa; stroke: #dddddd; stroke-width: 0.3; stroke-linejoin: miter"/>
    </g>
    <g id="text_17">
     <text style="font-size: 8.5px; font-family: 'Arial', 'Helvetica', 'DejaVu Sans', sans-serif; text-anchor: middle" x="270.488409" y="66.997383" transform="rotate(-0 270.488409 66.997383)">0.0</text>
    </g>
    <g id="patch_19">
     <path d="M 296.166047 72 
L 344.097638 72 
L 344.097638 57.6 
L 296.166047 57.6 
z
" style="fill: #f8f9fa; stroke: #dddddd; stroke-width: 0.3; stroke-linejoin: miter"/>
    </g>
    <g id="text_18">
     <text style="font-size: 8.5px; font-family: 'Arial', 'Helvetica', 'DejaVu Sans', sans-serif; text-anchor: middle" x="320.131843" y="66.997383" transform="rotate(-0 320.131843 66.997383)">0.1</text>
    </g>
    <g id="patch_20">
     <path d="M 1.729134 86.4 
L 66.77915 86.4 
L 66.77915 72 
L 1.729134 72 
z
" style="fill: #ffffff; stroke: #dddddd; stroke-width: 0.3; stroke-linejoin: miter"/>
    </g>
    <g id="text_19">
     <text style="font-size: 8.5px; font-family: 'Arial', 'Helvetica', 'DejaVu Sans', sans-serif; text-anchor: middle" x="34.254142" y="81.397383" transform="rotate(-0 34.254142 81.397383)">B0</text>
    </g>
    <g id="patch_21">
     <path d="M 66.77915 86.4 
L 138.676535 86.4 
L 138.676535 72 
L 66.77915 72 
z
" style="fill: #ffffff; stroke: #dddddd; stroke-width: 0.3; stroke-linejoin: miter"/>
    </g>
    <g id="text_20">
     <text style="font-size: 8.5px; font-family: 'Arial', 'Helvetica', 'DejaVu Sans', sans-serif; text-anchor: middle" x="102.727843" y="81.397383" transform="rotate(-0 102.727843 81.397383)">Attack 12</text>
    </g>
    <g id="patch_22">
     <path d="M 138.676535 86.4 
L 200.302866 86.4 
L 200.302866 72 
L 138.676535 72 
z
" style="fill: #ffffff; stroke: #dddddd; stroke-width: 0.3; stroke-linejoin: miter"/>
    </g>
    <g id="text_21">
     <text style="font-size: 8.5px; font-family: 'Arial', 'Helvetica', 'DejaVu Sans', sans-serif; text-anchor: middle" x="169.489701" y="81.397383" transform="rotate(-0 169.489701 81.397383)">0.0</text>
    </g>
    <g id="patch_23">
     <path d="M 200.302866 86.4 
L 244.810772 86.4 
L 244.810772 72 
L 200.302866 72 
z
" style="fill: #ffffff; stroke: #dddddd; stroke-width: 0.3; stroke-linejoin: miter"/>
    </g>
    <g id="text_22">
     <text style="font-size: 8.5px; font-family: 'Arial', 'Helvetica', 'DejaVu Sans', sans-serif; text-anchor: middle" x="222.556819" y="81.397383" transform="rotate(-0 222.556819 81.397383)">100.0</text>
    </g>
    <g id="patch_24">
     <path d="M 244.810772 86.4 
L 296.166047 86.4 
L 296.166047 72 
L 244.810772 72 
z
" style="fill: #ffffff; stroke: #dddddd; stroke-width: 0.3; stroke-linejoin: miter"/>
    </g>
    <g id="text_23">
     <text style="font-size: 8.5px; font-family: 'Arial', 'Helvetica', 'DejaVu Sans', sans-serif; text-anchor: middle" x="270.488409" y="81.397383" transform="rotate(-0 270.488409 81.397383)">100.0</text>
    </g>
    <g id="patch_25">
     <path d="M 296.166047 86.4 
L 344.097638 86.4 
L 344.097638 72 
L 296.166047 72 
z
" style="fill: #ffffff; stroke: #dddddd; stroke-width: 0.3; stroke-linejoin: miter"/>
    </g>
    <g id="text_24">
     <text style="font-size: 8.5px; font-family: 'Arial', 'Helvetica', 'DejaVu Sans', sans-serif; text-anchor: middle" x="320.131843" y="81.397383" transform="rotate(-0 320.131843 81.397383)">0.0</text>
    </g>
    <g id="patch_26">
     <path d="M 1.729134 100.8 
L 66.77915 100.8 
L 66.77915 86.4 
L 1.729134 86.4 
z
" style="fill: #f8f9fa; stroke: #dddddd; stroke-width: 0.3; stroke-linejoin: miter"/>
    </g>
    <g id="text_25">
     <text style="font-size: 8.5px; font-family: 'Arial', 'Helvetica', 'DejaVu Sans', sans-serif; text-anchor: middle" x="34.254142" y="95.797383" transform="rotate(-0 34.254142 95.797383)">B0</text>
    </g>
    <g id="patch_27">
     <path d="M 66.77915 100.8 
L 138.676535 100.8 
L 138.676535 86.4 
L 66.77915 86.4 
z
" style="fill: #f8f9fa; stroke: #dddddd; stroke-width: 0.3; stroke-linejoin: miter"/>
    </g>
    <g id="text_26">
     <text style="font-size: 8.5px; font-family: 'Arial', 'Helvetica', 'DejaVu Sans', sans-serif; text-anchor: middle" x="102.727843" y="95.797383" transform="rotate(-0 102.727843 95.797383)">Attack 200</text>
    </g>
    <g id="patch_28">
     <path d="M 138.676535 100.8 
L 200.302866 100.8 
L 200.302866 86.4 
L 138.676535 86.4 
z
" style="fill: #f8f9fa; stroke: #dddddd; stroke-width: 0.3; stroke-linejoin: miter"/>
    </g>
    <g id="text_27">
     <text style="font-size: 8.5px; font-family: 'Arial', 'Helvetica', 'DejaVu Sans', sans-serif; text-anchor: middle" x="169.489701" y="95.797383" transform="rotate(-0 169.489701 95.797383)">100.0</text>
    </g>
    <g id="patch_29">
     <path d="M 200.302866 100.8 
L 244.810772 100.8 
L 244.810772 86.4 
L 200.302866 86.4 
z
" style="fill: #f8f9fa; stroke: #dddddd; stroke-width: 0.3; stroke-linejoin: miter"/>
    </g>
    <g id="text_28">
     <text style="font-size: 8.5px; font-family: 'Arial', 'Helvetica', 'DejaVu Sans', sans-serif; text-anchor: middle" x="222.556819" y="95.797383" transform="rotate(-0 222.556819 95.797383)">99.6</text>
    </g>
    <g id="patch_30">
     <path d="M 244.810772 100.8 
L 296.166047 100.8 
L 296.166047 86.4 
L 244.810772 86.4 
z
" style="fill: #f8f9fa; stroke: #dddddd; stroke-width: 0.3; stroke-linejoin: miter"/>
    </g>
    <g id="text_29">
     <text style="font-size: 8.5px; font-family: 'Arial', 'Helvetica', 'DejaVu Sans', sans-serif; text-anchor: middle" x="270.488409" y="95.797383" transform="rotate(-0 270.488409 95.797383)">99.8</text>
    </g>
    <g id="patch_31">
     <path d="M 296.166047 100.8 
L 344.097638 100.8 
L 344.097638 86.4 
L 296.166047 86.4 
z
" style="fill: #f8f9fa; stroke: #dddddd; stroke-width: 0.3; stroke-linejoin: miter"/>
    </g>
    <g id="text_30">
     <text style="font-size: 8.5px; font-family: 'Arial', 'Helvetica', 'DejaVu Sans', sans-serif; text-anchor: middle" x="320.131843" y="95.797383" transform="rotate(-0 320.131843 95.797383)">0.2</text>
    </g>
    <g id="patch_32">
     <path d="M 1.729134 115.2 
L 66.77915 115.2 
L 66.77915 100.8 
L 1.729134 100.8 
z
" style="fill: #ffffff; stroke: #dddddd; stroke-width: 0.3; stroke-linejoin: miter"/>
    </g>
    <g id="text_31">
     <text style="font-size: 8.5px; font-family: 'Arial', 'Helvetica', 'DejaVu Sans', sans-serif; text-anchor: middle" x="34.254142" y="110.197383" transform="rotate(-0 34.254142 110.197383)">B1+TC</text>
    </g>
    <g id="patch_33">
     <path d="M 66.77915 115.2 
L 138.676535 115.2 
L 138.676535 100.8 
L 66.77915 100.8 
z
" style="fill: #ffffff; stroke: #dddddd; stroke-width: 0.3; stroke-linejoin: miter"/>
    </g>
    <g id="text_32">
     <text style="font-size: 8.5px; font-family: 'Arial', 'Helvetica', 'DejaVu Sans', sans-serif; text-anchor: middle" x="102.727843" y="110.160195" transform="rotate(-0 102.727843 110.160195)">Benign 12</text>
    </g>
    <g id="patch_34">
     <path d="M 138.676535 115.2 
L 200.302866 115.2 
L 200.302866 100.8 
L 138.676535 100.8 
z
" style="fill: #ffffff; stroke: #dddddd; stroke-width: 0.3; stroke-linejoin: miter"/>
    </g>
    <g id="text_33">
     <text style="font-size: 8.5px; font-family: 'Arial', 'Helvetica', 'DejaVu Sans', sans-serif; text-anchor: middle" x="169.489701" y="110.197383" transform="rotate(-0 169.489701 110.197383)">0.0</text>
    </g>
    <g id="patch_35">
     <path d="M 200.302866 115.2 
L 244.810772 115.2 
L 244.810772 100.8 
L 200.302866 100.8 
z
" style="fill: #ffffff; stroke: #dddddd; stroke-width: 0.3; stroke-linejoin: miter"/>
    </g>
    <g id="text_34">
     <text style="font-size: 8.5px; font-family: 'Arial', 'Helvetica', 'DejaVu Sans', sans-serif; text-anchor: middle" x="222.556819" y="110.197383" transform="rotate(-0 222.556819 110.197383)">0.0</text>
    </g>
    <g id="patch_36">
     <path d="M 244.810772 115.2 
L 296.166047 115.2 
L 296.166047 100.8 
L 244.810772 100.8 
z
" style="fill: #ffffff; stroke: #dddddd; stroke-width: 0.3; stroke-linejoin: miter"/>
    </g>
    <g id="text_35">
     <text style="font-size: 8.5px; font-family: 'Arial', 'Helvetica', 'DejaVu Sans', sans-serif; text-anchor: middle" x="270.488409" y="110.197383" transform="rotate(-0 270.488409 110.197383)">0.0</text>
    </g>
    <g id="patch_37">
     <path d="M 296.166047 115.2 
L 344.097638 115.2 
L 344.097638 100.8 
L 296.166047 100.8 
z
" style="fill: #ffffff; stroke: #dddddd; stroke-width: 0.3; stroke-linejoin: miter"/>
    </g>
    <g id="text_36">
     <text style="font-size: 8.5px; font-family: 'Arial', 'Helvetica', 'DejaVu Sans', sans-serif; text-anchor: middle" x="320.131843" y="110.197383" transform="rotate(-0 320.131843 110.197383)">0.4</text>
    </g>
    <g id="patch_38">
     <path d="M 1.729134 129.6 
L 66.77915 129.6 
L 66.77915 115.2 
L 1.729134 115.2 
z
" style="fill: #f8f9fa; stroke: #dddddd; stroke-width: 0.3; stroke-linejoin: miter"/>
    </g>
    <g id="text_37">
     <text style="font-size: 8.5px; font-family: 'Arial', 'Helvetica', 'DejaVu Sans', sans-serif; text-anchor: middle" x="34.254142" y="124.597383" transform="rotate(-0 34.254142 124.597383)">B1+TC</text>
    </g>
    <g id="patch_39">
     <path d="M 66.77915 129.6 
L 138.676535 129.6 
L 138.676535 115.2 
L 66.77915 115.2 
z
" style="fill: #f8f9fa; stroke: #dddddd; stroke-width: 0.3; stroke-linejoin: miter"/>
    </g>
    <g id="text_38">
     <text style="font-size: 8.5px; font-family: 'Arial', 'Helvetica', 'DejaVu Sans', sans-serif; text-anchor: middle" x="102.727843" y="124.560195" transform="rotate(-0 102.727843 124.560195)">Benign 200</text>
    </g>
    <g id="patch_40">
     <path d="M 138.676535 129.6 
L 200.302866 129.6 
L 200.302866 115.2 
L 138.676535 115.2 
z
" style="fill: #f8f9fa; stroke: #dddddd; stroke-width: 0.3; stroke-linejoin: miter"/>
    </g>
    <g id="text_39">
     <text style="font-size: 8.5px; font-family: 'Arial', 'Helvetica', 'DejaVu Sans', sans-serif; text-anchor: middle" x="169.489701" y="124.597383" transform="rotate(-0 169.489701 124.597383)">100.0</text>
    </g>
    <g id="patch_41">
     <path d="M 200.302866 129.6 
L 244.810772 129.6 
L 244.810772 115.2 
L 200.302866 115.2 
z
" style="fill: #f8f9fa; stroke: #dddddd; stroke-width: 0.3; stroke-linejoin: miter"/>
    </g>
    <g id="text_40">
     <text style="font-size: 8.5px; font-family: 'Arial', 'Helvetica', 'DejaVu Sans', sans-serif; text-anchor: middle" x="222.556819" y="124.597383" transform="rotate(-0 222.556819 124.597383)">0.0</text>
    </g>
    <g id="patch_42">
     <path d="M 244.810772 129.6 
L 296.166047 129.6 
L 296.166047 115.2 
L 244.810772 115.2 
z
" style="fill: #f8f9fa; stroke: #dddddd; stroke-width: 0.3; stroke-linejoin: miter"/>
    </g>
    <g id="text_41">
     <text style="font-size: 8.5px; font-family: 'Arial', 'Helvetica', 'DejaVu Sans', sans-serif; text-anchor: middle" x="270.488409" y="124.597383" transform="rotate(-0 270.488409 124.597383)">0.0</text>
    </g>
    <g id="patch_43">
     <path d="M 296.166047 129.6 
L 344.097638 129.6 
L 344.097638 115.2 
L 296.166047 115.2 
z
" style="fill: #f8f9fa; stroke: #dddddd; stroke-width: 0.3; stroke-linejoin: miter"/>
    </g>
    <g id="text_42">
     <text style="font-size: 8.5px; font-family: 'Arial', 'Helvetica', 'DejaVu Sans', sans-serif; text-anchor: middle" x="320.131843" y="124.597383" transform="rotate(-0 320.131843 124.597383)">0.5</text>
    </g>
    <g id="patch_44">
     <path d="M 1.729134 144 
L 66.77915 144 
L 66.77915 129.6 
L 1.729134 129.6 
z
" style="fill: #ffffff; stroke: #dddddd; stroke-width: 0.3; stroke-linejoin: miter"/>
    </g>
    <g id="text_43">
     <text style="font-size: 8.5px; font-family: 'Arial', 'Helvetica', 'DejaVu Sans', sans-serif; text-anchor: middle" x="34.254142" y="138.997383" transform="rotate(-0 34.254142 138.997383)">B1+TC</text>
    </g>
    <g id="patch_45">
     <path d="M 66.77915 144 
L 138.676535 144 
L 138.676535 129.6 
L 66.77915 129.6 
z
" style="fill: #ffffff; stroke: #dddddd; stroke-width: 0.3; stroke-linejoin: miter"/>
    </g>
    <g id="text_44">
     <text style="font-size: 8.5px; font-family: 'Arial', 'Helvetica', 'DejaVu Sans', sans-serif; text-anchor: middle" x="102.727843" y="138.997383" transform="rotate(-0 102.727843 138.997383)">Attack 12</text>
    </g>
    <g id="patch_46">
     <path d="M 138.676535 144 
L 200.302866 144 
L 200.302866 129.6 
L 138.676535 129.6 
z
" style="fill: #ffffff; stroke: #dddddd; stroke-width: 0.3; stroke-linejoin: miter"/>
    </g>
    <g id="text_45">
     <text style="font-size: 8.5px; font-family: 'Arial', 'Helvetica', 'DejaVu Sans', sans-serif; text-anchor: middle" x="169.489701" y="138.997383" transform="rotate(-0 169.489701 138.997383)">0.0</text>
    </g>
    <g id="patch_47">
     <path d="M 200.302866 144 
L 244.810772 144 
L 244.810772 129.6 
L 200.302866 129.6 
z
" style="fill: #ffffff; stroke: #dddddd; stroke-width: 0.3; stroke-linejoin: miter"/>
    </g>
    <g id="text_46">
     <text style="font-size: 8.5px; font-family: 'Arial', 'Helvetica', 'DejaVu Sans', sans-serif; text-anchor: middle" x="222.556819" y="138.997383" transform="rotate(-0 222.556819 138.997383)">0.0</text>
    </g>
    <g id="patch_48">
     <path d="M 244.810772 144 
L 296.166047 144 
L 296.166047 129.6 
L 244.810772 129.6 
z
" style="fill: #ffffff; stroke: #dddddd; stroke-width: 0.3; stroke-linejoin: miter"/>
    </g>
    <g id="text_47">
     <text style="font-size: 8.5px; font-family: 'Arial', 'Helvetica', 'DejaVu Sans', sans-serif; text-anchor: middle" x="270.488409" y="138.997383" transform="rotate(-0 270.488409 138.997383)">0.0</text>
    </g>
    <g id="patch_49">
     <path d="M 296.166047 144 
L 344.097638 144 
L 344.097638 129.6 
L 296.166047 129.6 
z
" style="fill: #ffffff; stroke: #dddddd; stroke-width: 0.3; stroke-linejoin: miter"/>
    </g>
    <g id="text_48">
     <text style="font-size: 8.5px; font-family: 'Arial', 'Helvetica', 'DejaVu Sans', sans-serif; text-anchor: middle" x="320.131843" y="138.997383" transform="rotate(-0 320.131843 138.997383)">0.2</text>
    </g>
    <g id="patch_50">
     <path d="M 1.729134 158.4 
L 66.77915 158.4 
L 66.77915 144 
L 1.729134 144 
z
" style="fill: #f8f9fa; stroke: #dddddd; stroke-width: 0.3; stroke-linejoin: miter"/>
    </g>
    <g id="text_49">
     <text style="font-size: 8.5px; font-family: 'Arial', 'Helvetica', 'DejaVu Sans', sans-serif; text-anchor: middle" x="34.254142" y="153.397383" transform="rotate(-0 34.254142 153.397383)">B1+TC</text>
    </g>
    <g id="patch_51">
     <path d="M 66.77915 158.4 
L 138.676535 158.4 
L 138.676535 144 
L 66.77915 144 
z
" style="fill: #f8f9fa; stroke: #dddddd; stroke-width: 0.3; stroke-linejoin: miter"/>
    </g>
    <g id="text_50">
     <text style="font-size: 8.5px; font-family: 'Arial', 'Helvetica', 'DejaVu Sans', sans-serif; text-anchor: middle" x="102.727843" y="153.397383" transform="rotate(-0 102.727843 153.397383)">Attack 200</text>
    </g>
    <g id="patch_52">
     <path d="M 138.676535 158.4 
L 200.302866 158.4 
L 200.302866 144 
L 138.676535 144 
z
" style="fill: #f8f9fa; stroke: #dddddd; stroke-width: 0.3; stroke-linejoin: miter"/>
    </g>
    <g id="text_51">
     <text style="font-size: 8.5px; font-family: 'Arial', 'Helvetica', 'DejaVu Sans', sans-serif; text-anchor: middle" x="169.489701" y="153.397383" transform="rotate(-0 169.489701 153.397383)">100.0</text>
    </g>
    <g id="patch_53">
     <path d="M 200.302866 158.4 
L 244.810772 158.4 
L 244.810772 144 
L 200.302866 144 
z
" style="fill: #f8f9fa; stroke: #dddddd; stroke-width: 0.3; stroke-linejoin: miter"/>
    </g>
    <g id="text_52">
     <text style="font-size: 8.5px; font-family: 'Arial', 'Helvetica', 'DejaVu Sans', sans-serif; text-anchor: middle" x="222.556819" y="153.397383" transform="rotate(-0 222.556819 153.397383)">0.0</text>
    </g>
    <g id="patch_54">
     <path d="M 244.810772 158.4 
L 296.166047 158.4 
L 296.166047 144 
L 244.810772 144 
z
" style="fill: #f8f9fa; stroke: #dddddd; stroke-width: 0.3; stroke-linejoin: miter"/>
    </g>
    <g id="text_53">
     <text style="font-size: 8.5px; font-family: 'Arial', 'Helvetica', 'DejaVu Sans', sans-serif; text-anchor: middle" x="270.488409" y="153.397383" transform="rotate(-0 270.488409 153.397383)">0.0</text>
    </g>
    <g id="patch_55">
     <path d="M 296.166047 158.4 
L 344.097638 158.4 
L 344.097638 144 
L 296.166047 144 
z
" style="fill: #f8f9fa; stroke: #dddddd; stroke-width: 0.3; stroke-linejoin: miter"/>
    </g>
    <g id="text_54">
     <text style="font-size: 8.5px; font-family: 'Arial', 'Helvetica', 'DejaVu Sans', sans-serif; text-anchor: middle" x="320.131843" y="153.397383" transform="rotate(-0 320.131843 153.397383)">0.5</text>
    </g>
    <g id="patch_56">
     <path d="M 1.729134 172.8 
L 66.77915 172.8 
L 66.77915 158.4 
L 1.729134 158.4 
z
" style="fill: #ffffff; stroke: #dddddd; stroke-width: 0.3; stroke-linejoin: miter"/>
    </g>
    <g id="text_55">
     <text style="font-size: 8.5px; font-family: 'Arial', 'Helvetica', 'DejaVu Sans', sans-serif; text-anchor: middle" x="34.254142" y="167.797383" transform="rotate(-0 34.254142 167.797383)">B5+TC</text>
    </g>
    <g id="patch_57">
     <path d="M 66.77915 172.8 
L 138.676535 172.8 
L 138.676535 158.4 
L 66.77915 158.4 
z
" style="fill: #ffffff; stroke: #dddddd; stroke-width: 0.3; stroke-linejoin: miter"/>
    </g>
    <g id="text_56">
     <text style="font-size: 8.5px; font-family: 'Arial', 'Helvetica', 'DejaVu Sans', sans-serif; text-anchor: middle" x="102.727843" y="167.760195" transform="rotate(-0 102.727843 167.760195)">Benign 12</text>
    </g>
    <g id="patch_58">
     <path d="M 138.676535 172.8 
L 200.302866 172.8 
L 200.302866 158.4 
L 138.676535 158.4 
z
" style="fill: #ffffff; stroke: #dddddd; stroke-width: 0.3; stroke-linejoin: miter"/>
    </g>
    <g id="text_57">
     <text style="font-size: 8.5px; font-family: 'Arial', 'Helvetica', 'DejaVu Sans', sans-serif; text-anchor: middle" x="169.489701" y="167.797383" transform="rotate(-0 169.489701 167.797383)">0.0</text>
    </g>
    <g id="patch_59">
     <path d="M 200.302866 172.8 
L 244.810772 172.8 
L 244.810772 158.4 
L 200.302866 158.4 
z
" style="fill: #ffffff; stroke: #dddddd; stroke-width: 0.3; stroke-linejoin: miter"/>
    </g>
    <g id="text_58">
     <text style="font-size: 8.5px; font-family: 'Arial', 'Helvetica', 'DejaVu Sans', sans-serif; text-anchor: middle" x="222.556819" y="167.797383" transform="rotate(-0 222.556819 167.797383)">0.0</text>
    </g>
    <g id="patch_60">
     <path d="M 244.810772 172.8 
L 296.166047 172.8 
L 296.166047 158.4 
L 244.810772 158.4 
z
" style="fill: #ffffff; stroke: #dddddd; stroke-width: 0.3; stroke-linejoin: miter"/>
    </g>
    <g id="text_59">
     <text style="font-size: 8.5px; font-family: 'Arial', 'Helvetica', 'DejaVu Sans', sans-serif; text-anchor: middle" x="270.488409" y="167.797383" transform="rotate(-0 270.488409 167.797383)">0.0</text>
    </g>
    <g id="patch_61">
     <path d="M 296.166047 172.8 
L 344.097638 172.8 
L 344.097638 158.4 
L 296.166047 158.4 
z
" style="fill: #ffffff; stroke: #dddddd; stroke-width: 0.3; stroke-linejoin: miter"/>
    </g>
    <g id="text_60">
     <text style="font-size: 8.5px; font-family: 'Arial', 'Helvetica', 'DejaVu Sans', sans-serif; text-anchor: middle" x="320.131843" y="167.797383" transform="rotate(-0 320.131843 167.797383)">0.3</text>
    </g>
    <g id="patch_62">
     <path d="M 1.729134 187.2 
L 66.77915 187.2 
L 66.77915 172.8 
L 1.729134 172.8 
z
" style="fill: #f8f9fa; stroke: #dddddd; stroke-width: 0.3; stroke-linejoin: miter"/>
    </g>
    <g id="text_61">
     <text style="font-size: 8.5px; font-family: 'Arial', 'Helvetica', 'DejaVu Sans', sans-serif; text-anchor: middle" x="34.254142" y="182.197383" transform="rotate(-0 34.254142 182.197383)">B5+TC</text>
    </g>
    <g id="patch_63">
     <path d="M 66.77915 187.2 
L 138.676535 187.2 
L 138.676535 172.8 
L 66.77915 172.8 
z
" style="fill: #f8f9fa; stroke: #dddddd; stroke-width: 0.3; stroke-linejoin: miter"/>
    </g>
    <g id="text_62">
     <text style="font-size: 8.5px; font-family: 'Arial', 'Helvetica', 'DejaVu Sans', sans-serif; text-anchor: middle" x="102.727843" y="182.160195" transform="rotate(-0 102.727843 182.160195)">Benign 200</text>
    </g>
    <g id="patch_64">
     <path d="M 138.676535 187.2 
L 200.302866 187.2 
L 200.302866 172.8 
L 138.676535 172.8 
z
" style="fill: #f8f9fa; stroke: #dddddd; stroke-width: 0.3; stroke-linejoin: miter"/>
    </g>
    <g id="text_63">
     <text style="font-size: 8.5px; font-family: 'Arial', 'Helvetica', 'DejaVu Sans', sans-serif; text-anchor: middle" x="169.489701" y="182.197383" transform="rotate(-0 169.489701 182.197383)">100.0</text>
    </g>
    <g id="patch_65">
     <path d="M 200.302866 187.2 
L 244.810772 187.2 
L 244.810772 172.8 
L 200.302866 172.8 
z
" style="fill: #f8f9fa; stroke: #dddddd; stroke-width: 0.3; stroke-linejoin: miter"/>
    </g>
    <g id="text_64">
     <text style="font-size: 8.5px; font-family: 'Arial', 'Helvetica', 'DejaVu Sans', sans-serif; text-anchor: middle" x="222.556819" y="182.197383" transform="rotate(-0 222.556819 182.197383)">0.0</text>
    </g>
    <g id="patch_66">
     <path d="M 244.810772 187.2 
L 296.166047 187.2 
L 296.166047 172.8 
L 244.810772 172.8 
z
" style="fill: #f8f9fa; stroke: #dddddd; stroke-width: 0.3; stroke-linejoin: miter"/>
    </g>
    <g id="text_65">
     <text style="font-size: 8.5px; font-family: 'Arial', 'Helvetica', 'DejaVu Sans', sans-serif; text-anchor: middle" x="270.488409" y="182.197383" transform="rotate(-0 270.488409 182.197383)">0.0</text>
    </g>
    <g id="patch_67">
     <path d="M 296.166047 187.2 
L 344.097638 187.2 
L 344.097638 172.8 
L 296.166047 172.8 
z
" style="fill: #f8f9fa; stroke: #dddddd; stroke-width: 0.3; stroke-linejoin: miter"/>
    </g>
    <g id="text_66">
     <text style="font-size: 8.5px; font-family: 'Arial', 'Helvetica', 'DejaVu Sans', sans-serif; text-anchor: middle" x="320.131843" y="182.197383" transform="rotate(-0 320.131843 182.197383)">0.7</text>
    </g>
    <g id="patch_68">
     <path d="M 1.729134 201.6 
L 66.77915 201.6 
L 66.77915 187.2 
L 1.729134 187.2 
z
" style="fill: #ffffff; stroke: #dddddd; stroke-width: 0.3; stroke-linejoin: miter"/>
    </g>
    <g id="text_67">
     <text style="font-size: 8.5px; font-family: 'Arial', 'Helvetica', 'DejaVu Sans', sans-serif; text-anchor: middle" x="34.254142" y="196.597383" transform="rotate(-0 34.254142 196.597383)">B5+TC</text>
    </g>
    <g id="patch_69">
     <path d="M 66.77915 201.6 
L 138.676535 201.6 
L 138.676535 187.2 
L 66.77915 187.2 
z
" style="fill: #ffffff; stroke: #dddddd; stroke-width: 0.3; stroke-linejoin: miter"/>
    </g>
    <g id="text_68">
     <text style="font-size: 8.5px; font-family: 'Arial', 'Helvetica', 'DejaVu Sans', sans-serif; text-anchor: middle" x="102.727843" y="196.597383" transform="rotate(-0 102.727843 196.597383)">Attack 12</text>
    </g>
    <g id="patch_70">
     <path d="M 138.676535 201.6 
L 200.302866 201.6 
L 200.302866 187.2 
L 138.676535 187.2 
z
" style="fill: #ffffff; stroke: #dddddd; stroke-width: 0.3; stroke-linejoin: miter"/>
    </g>
    <g id="text_69">
     <text style="font-size: 8.5px; font-family: 'Arial', 'Helvetica', 'DejaVu Sans', sans-serif; text-anchor: middle" x="169.489701" y="196.597383" transform="rotate(-0 169.489701 196.597383)">0.0</text>
    </g>
    <g id="patch_71">
     <path d="M 200.302866 201.6 
L 244.810772 201.6 
L 244.810772 187.2 
L 200.302866 187.2 
z
" style="fill: #ffffff; stroke: #dddddd; stroke-width: 0.3; stroke-linejoin: miter"/>
    </g>
    <g id="text_70">
     <text style="font-size: 8.5px; font-family: 'Arial', 'Helvetica', 'DejaVu Sans', sans-serif; text-anchor: middle" x="222.556819" y="196.597383" transform="rotate(-0 222.556819 196.597383)">99.8</text>
    </g>
    <g id="patch_72">
     <path d="M 244.810772 201.6 
L 296.166047 201.6 
L 296.166047 187.2 
L 244.810772 187.2 
z
" style="fill: #ffffff; stroke: #dddddd; stroke-width: 0.3; stroke-linejoin: miter"/>
    </g>
    <g id="text_71">
     <text style="font-size: 8.5px; font-family: 'Arial', 'Helvetica', 'DejaVu Sans', sans-serif; text-anchor: middle" x="270.488409" y="196.597383" transform="rotate(-0 270.488409 196.597383)">100.0</text>
    </g>
    <g id="patch_73">
     <path d="M 296.166047 201.6 
L 344.097638 201.6 
L 344.097638 187.2 
L 296.166047 187.2 
z
" style="fill: #ffffff; stroke: #dddddd; stroke-width: 0.3; stroke-linejoin: miter"/>
    </g>
    <g id="text_72">
     <text style="font-size: 8.5px; font-family: 'Arial', 'Helvetica', 'DejaVu Sans', sans-serif; text-anchor: middle" x="320.131843" y="196.597383" transform="rotate(-0 320.131843 196.597383)">0.2</text>
    </g>
    <g id="patch_74">
     <path d="M 1.729134 216 
L 66.77915 216 
L 66.77915 201.6 
L 1.729134 201.6 
z
" style="fill: #f8f9fa; stroke: #dddddd; stroke-width: 0.3; stroke-linejoin: miter"/>
    </g>
    <g id="text_73">
     <text style="font-size: 8.5px; font-family: 'Arial', 'Helvetica', 'DejaVu Sans', sans-serif; text-anchor: middle" x="34.254142" y="210.997383" transform="rotate(-0 34.254142 210.997383)">B5+TC</text>
    </g>
    <g id="patch_75">
     <path d="M 66.77915 216 
L 138.676535 216 
L 138.676535 201.6 
L 66.77915 201.6 
z
" style="fill: #f8f9fa; stroke: #dddddd; stroke-width: 0.3; stroke-linejoin: miter"/>
    </g>
    <g id="text_74">
     <text style="font-size: 8.5px; font-family: 'Arial', 'Helvetica', 'DejaVu Sans', sans-serif; text-anchor: middle" x="102.727843" y="210.997383" transform="rotate(-0 102.727843 210.997383)">Attack 200</text>
    </g>
    <g id="patch_76">
     <path d="M 138.676535 216 
L 200.302866 216 
L 200.302866 201.6 
L 138.676535 201.6 
z
" style="fill: #f8f9fa; stroke: #dddddd; stroke-width: 0.3; stroke-linejoin: miter"/>
    </g>
    <g id="text_75">
     <text style="font-size: 8.5px; font-family: 'Arial', 'Helvetica', 'DejaVu Sans', sans-serif; text-anchor: middle" x="169.489701" y="210.997383" transform="rotate(-0 169.489701 210.997383)">100.0</text>
    </g>
    <g id="patch_77">
     <path d="M 200.302866 216 
L 244.810772 216 
L 244.810772 201.6 
L 200.302866 201.6 
z
" style="fill: #f8f9fa; stroke: #dddddd; stroke-width: 0.3; stroke-linejoin: miter"/>
    </g>
    <g id="text_76">
     <text style="font-size: 8.5px; font-family: 'Arial', 'Helvetica', 'DejaVu Sans', sans-serif; text-anchor: middle" x="222.556819" y="210.997383" transform="rotate(-0 222.556819 210.997383)">0.0</text>
    </g>
    <g id="patch_78">
     <path d="M 244.810772 216 
L 296.166047 216 
L 296.166047 201.6 
L 244.810772 201.6 
z
" style="fill: #f8f9fa; stroke: #dddddd; stroke-width: 0.3; stroke-linejoin: miter"/>
    </g>
    <g id="text_77">
     <text style="font-size: 8.5px; font-family: 'Arial', 'Helvetica', 'DejaVu Sans', sans-serif; text-anchor: middle" x="270.488409" y="210.997383" transform="rotate(-0 270.488409 210.997383)">0.0</text>
    </g>
    <g id="patch_79">
     <path d="M 296.166047 216 
L 344.097638 216 
L 344.097638 201.6 
L 296.166047 201.6 
z
" style="fill: #f8f9fa; stroke: #dddddd; stroke-width: 0.3; stroke-linejoin: miter"/>
    </g>
    <g id="text_78">
     <text style="font-size: 8.5px; font-family: 'Arial', 'Helvetica', 'DejaVu Sans', sans-serif; text-anchor: middle" x="320.131843" y="210.997383" transform="rotate(-0 320.131843 210.997383)">0.2</text>
    </g>
    <g id="patch_80">
     <path d="M 1.729134 230.4 
L 66.77915 230.4 
L 66.77915 216 
L 1.729134 216 
z
" style="fill: #ffffff; stroke: #dddddd; stroke-width: 0.3; stroke-linejoin: miter"/>
    </g>
    <g id="text_79">
     <text style="font-size: 8.5px; font-family: 'Arial', 'Helvetica', 'DejaVu Sans', sans-serif; text-anchor: middle" x="34.254142" y="225.397383" transform="rotate(-0 34.254142 225.397383)">Native drop</text>
    </g>
    <g id="patch_81">
     <path d="M 66.77915 230.4 
L 138.676535 230.4 
L 138.676535 216 
L 66.77915 216 
z
" style="fill: #ffffff; stroke: #dddddd; stroke-width: 0.3; stroke-linejoin: miter"/>
    </g>
    <g id="text_80">
     <text style="font-size: 8.5px; font-family: 'Arial', 'Helvetica', 'DejaVu Sans', sans-serif; text-anchor: middle" x="102.727843" y="225.360195" transform="rotate(-0 102.727843 225.360195)">Benign 12</text>
    </g>
    <g id="patch_82">
     <path d="M 138.676535 230.4 
L 200.302866 230.4 
L 200.302866 216 
L 138.676535 216 
z
" style="fill: #ffffff; stroke: #dddddd; stroke-width: 0.3; stroke-linejoin: miter"/>
    </g>
    <g id="text_81">
     <text style="font-size: 8.5px; font-family: 'Arial', 'Helvetica', 'DejaVu Sans', sans-serif; text-anchor: middle" x="169.489701" y="225.397383" transform="rotate(-0 169.489701 225.397383)">0.0</text>
    </g>
    <g id="patch_83">
     <path d="M 200.302866 230.4 
L 244.810772 230.4 
L 244.810772 216 
L 200.302866 216 
z
" style="fill: #ffffff; stroke: #dddddd; stroke-width: 0.3; stroke-linejoin: miter"/>
    </g>
    <g id="text_82">
     <text style="font-size: 8.5px; font-family: 'Arial', 'Helvetica', 'DejaVu Sans', sans-serif; text-anchor: middle" x="222.556819" y="225.397383" transform="rotate(-0 222.556819 225.397383)">0.0</text>
    </g>
    <g id="patch_84">
     <path d="M 244.810772 230.4 
L 296.166047 230.4 
L 296.166047 216 
L 244.810772 216 
z
" style="fill: #ffffff; stroke: #dddddd; stroke-width: 0.3; stroke-linejoin: miter"/>
    </g>
    <g id="text_83">
     <text style="font-size: 8.5px; font-family: 'Arial', 'Helvetica', 'DejaVu Sans', sans-serif; text-anchor: middle" x="270.488409" y="225.397383" transform="rotate(-0 270.488409 225.397383)">0.0</text>
    </g>
    <g id="patch_85">
     <path d="M 296.166047 230.4 
L 344.097638 230.4 
L 344.097638 216 
L 296.166047 216 
z
" style="fill: #ffffff; stroke: #dddddd; stroke-width: 0.3; stroke-linejoin: miter"/>
    </g>
    <g id="text_84">
     <text style="font-size: 8.5px; font-family: 'Arial', 'Helvetica', 'DejaVu Sans', sans-serif; text-anchor: middle" x="320.131843" y="225.397383" transform="rotate(-0 320.131843 225.397383)">100.0</text>
    </g>
    <g id="patch_86">
     <path d="M 1.729134 244.8 
L 66.77915 244.8 
L 66.77915 230.4 
L 1.729134 230.4 
z
" style="fill: #f8f9fa; stroke: #dddddd; stroke-width: 0.3; stroke-linejoin: miter"/>
    </g>
    <g id="text_85">
     <text style="font-size: 8.5px; font-family: 'Arial', 'Helvetica', 'DejaVu Sans', sans-serif; text-anchor: middle" x="34.254142" y="239.797383" transform="rotate(-0 34.254142 239.797383)">Native drop</text>
    </g>
    <g id="patch_87">
     <path d="M 66.77915 244.8 
L 138.676535 244.8 
L 138.676535 230.4 
L 66.77915 230.4 
z
" style="fill: #f8f9fa; stroke: #dddddd; stroke-width: 0.3; stroke-linejoin: miter"/>
    </g>
    <g id="text_86">
     <text style="font-size: 8.5px; font-family: 'Arial', 'Helvetica', 'DejaVu Sans', sans-serif; text-anchor: middle" x="102.727843" y="239.760195" transform="rotate(-0 102.727843 239.760195)">Benign 200</text>
    </g>
    <g id="patch_88">
     <path d="M 138.676535 244.8 
L 200.302866 244.8 
L 200.302866 230.4 
L 138.676535 230.4 
z
" style="fill: #f8f9fa; stroke: #dddddd; stroke-width: 0.3; stroke-linejoin: miter"/>
    </g>
    <g id="text_87">
     <text style="font-size: 8.5px; font-family: 'Arial', 'Helvetica', 'DejaVu Sans', sans-serif; text-anchor: middle" x="169.489701" y="239.797383" transform="rotate(-0 169.489701 239.797383)">100.0</text>
    </g>
    <g id="patch_89">
     <path d="M 200.302866 244.8 
L 244.810772 244.8 
L 244.810772 230.4 
L 200.302866 230.4 
z
" style="fill: #f8f9fa; stroke: #dddddd; stroke-width: 0.3; stroke-linejoin: miter"/>
    </g>
    <g id="text_88">
     <text style="font-size: 8.5px; font-family: 'Arial', 'Helvetica', 'DejaVu Sans', sans-serif; text-anchor: middle" x="222.556819" y="239.797383" transform="rotate(-0 222.556819 239.797383)">0.0</text>
    </g>
    <g id="patch_90">
     <path d="M 244.810772 244.8 
L 296.166047 244.8 
L 296.166047 230.4 
L 244.810772 230.4 
z
" style="fill: #f8f9fa; stroke: #dddddd; stroke-width: 0.3; stroke-linejoin: miter"/>
    </g>
    <g id="text_89">
     <text style="font-size: 8.5px; font-family: 'Arial', 'Helvetica', 'DejaVu Sans', sans-serif; text-anchor: middle" x="270.488409" y="239.797383" transform="rotate(-0 270.488409 239.797383)">0.0</text>
    </g>
    <g id="patch_91">
     <path d="M 296.166047 244.8 
L 344.097638 244.8 
L 344.097638 230.4 
L 296.166047 230.4 
z
" style="fill: #f8f9fa; stroke: #dddddd; stroke-width: 0.3; stroke-linejoin: miter"/>
    </g>
    <g id="text_90">
     <text style="font-size: 8.5px; font-family: 'Arial', 'Helvetica', 'DejaVu Sans', sans-serif; text-anchor: middle" x="320.131843" y="239.797383" transform="rotate(-0 320.131843 239.797383)">100.0</text>
    </g>
    <g id="patch_92">
     <path d="M 1.729134 259.2 
L 66.77915 259.2 
L 66.77915 244.8 
L 1.729134 244.8 
z
" style="fill: #ffffff; stroke: #dddddd; stroke-width: 0.3; stroke-linejoin: miter"/>
    </g>
    <g id="text_91">
     <text style="font-size: 8.5px; font-family: 'Arial', 'Helvetica', 'DejaVu Sans', sans-serif; text-anchor: middle" x="34.254142" y="254.197383" transform="rotate(-0 34.254142 254.197383)">Native drop</text>
    </g>
    <g id="patch_93">
     <path d="M 66.77915 259.2 
L 138.676535 259.2 
L 138.676535 244.8 
L 66.77915 244.8 
z
" style="fill: #ffffff; stroke: #dddddd; stroke-width: 0.3; stroke-linejoin: miter"/>
    </g>
    <g id="text_92">
     <text style="font-size: 8.5px; font-family: 'Arial', 'Helvetica', 'DejaVu Sans', sans-serif; text-anchor: middle" x="102.727843" y="254.197383" transform="rotate(-0 102.727843 254.197383)">Attack 12</text>
    </g>
    <g id="patch_94">
     <path d="M 138.676535 259.2 
L 200.302866 259.2 
L 200.302866 244.8 
L 138.676535 244.8 
z
" style="fill: #ffffff; stroke: #dddddd; stroke-width: 0.3; stroke-linejoin: miter"/>
    </g>
    <g id="text_93">
     <text style="font-size: 8.5px; font-family: 'Arial', 'Helvetica', 'DejaVu Sans', sans-serif; text-anchor: middle" x="169.489701" y="254.197383" transform="rotate(-0 169.489701 254.197383)">0.0</text>
    </g>
    <g id="patch_95">
     <path d="M 200.302866 259.2 
L 244.810772 259.2 
L 244.810772 244.8 
L 200.302866 244.8 
z
" style="fill: #ffffff; stroke: #dddddd; stroke-width: 0.3; stroke-linejoin: miter"/>
    </g>
    <g id="text_94">
     <text style="font-size: 8.5px; font-family: 'Arial', 'Helvetica', 'DejaVu Sans', sans-serif; text-anchor: middle" x="222.556819" y="254.197383" transform="rotate(-0 222.556819 254.197383)">0.0</text>
    </g>
    <g id="patch_96">
     <path d="M 244.810772 259.2 
L 296.166047 259.2 
L 296.166047 244.8 
L 244.810772 244.8 
z
" style="fill: #ffffff; stroke: #dddddd; stroke-width: 0.3; stroke-linejoin: miter"/>
    </g>
    <g id="text_95">
     <text style="font-size: 8.5px; font-family: 'Arial', 'Helvetica', 'DejaVu Sans', sans-serif; text-anchor: middle" x="270.488409" y="254.197383" transform="rotate(-0 270.488409 254.197383)">0.0</text>
    </g>
    <g id="patch_97">
     <path d="M 296.166047 259.2 
L 344.097638 259.2 
L 344.097638 244.8 
L 296.166047 244.8 
z
" style="fill: #ffffff; stroke: #dddddd; stroke-width: 0.3; stroke-linejoin: miter"/>
    </g>
    <g id="text_96">
     <text style="font-size: 8.5px; font-family: 'Arial', 'Helvetica', 'DejaVu Sans', sans-serif; text-anchor: middle" x="320.131843" y="254.197383" transform="rotate(-0 320.131843 254.197383)">100.0</text>
    </g>
    <g id="patch_98">
     <path d="M 1.729134 273.6 
L 66.77915 273.6 
L 66.77915 259.2 
L 1.729134 259.2 
z
" style="fill: #f8f9fa; stroke: #dddddd; stroke-width: 0.3; stroke-linejoin: miter"/>
    </g>
    <g id="text_97">
     <text style="font-size: 8.5px; font-family: 'Arial', 'Helvetica', 'DejaVu Sans', sans-serif; text-anchor: middle" x="34.254142" y="268.597383" transform="rotate(-0 34.254142 268.597383)">Native drop</text>
    </g>
    <g id="patch_99">
     <path d="M 66.77915 273.6 
L 138.676535 273.6 
L 138.676535 259.2 
L 66.77915 259.2 
z
" style="fill: #f8f9fa; stroke: #dddddd; stroke-width: 0.3; stroke-linejoin: miter"/>
    </g>
    <g id="text_98">
     <text style="font-size: 8.5px; font-family: 'Arial', 'Helvetica', 'DejaVu Sans', sans-serif; text-anchor: middle" x="102.727843" y="268.597383" transform="rotate(-0 102.727843 268.597383)">Attack 200</text>
    </g>
    <g id="patch_100">
     <path d="M 138.676535 273.6 
L 200.302866 273.6 
L 200.302866 259.2 
L 138.676535 259.2 
z
" style="fill: #f8f9fa; stroke: #dddddd; stroke-width: 0.3; stroke-linejoin: miter"/>
    </g>
    <g id="text_99">
     <text style="font-size: 8.5px; font-family: 'Arial', 'Helvetica', 'DejaVu Sans', sans-serif; text-anchor: middle" x="169.489701" y="268.597383" transform="rotate(-0 169.489701 268.597383)">100.0</text>
    </g>
    <g id="patch_101">
     <path d="M 200.302866 273.6 
L 244.810772 273.6 
L 244.810772 259.2 
L 200.302866 259.2 
z
" style="fill: #f8f9fa; stroke: #dddddd; stroke-width: 0.3; stroke-linejoin: miter"/>
    </g>
    <g id="text_100">
     <text style="font-size: 8.5px; font-family: 'Arial', 'Helvetica', 'DejaVu Sans', sans-serif; text-anchor: middle" x="222.556819" y="268.597383" transform="rotate(-0 222.556819 268.597383)">0.0</text>
    </g>
    <g id="patch_102">
     <path d="M 244.810772 273.6 
L 296.166047 273.6 
L 296.166047 259.2 
L 244.810772 259.2 
z
" style="fill: #f8f9fa; stroke: #dddddd; stroke-width: 0.3; stroke-linejoin: miter"/>
    </g>
    <g id="text_101">
     <text style="font-size: 8.5px; font-family: 'Arial', 'Helvetica', 'DejaVu Sans', sans-serif; text-anchor: middle" x="270.488409" y="268.597383" transform="rotate(-0 270.488409 268.597383)">0.0</text>
    </g>
    <g id="patch_103">
     <path d="M 296.166047 273.6 
L 344.097638 273.6 
L 344.097638 259.2 
L 296.166047 259.2 
z
" style="fill: #f8f9fa; stroke: #dddddd; stroke-width: 0.3; stroke-linejoin: miter"/>
    </g>
    <g id="text_102">
     <text style="font-size: 8.5px; font-family: 'Arial', 'Helvetica', 'DejaVu Sans', sans-serif; text-anchor: middle" x="320.131843" y="268.597383" transform="rotate(-0 320.131843 268.597383)">100.0</text>
    </g>
   </g>
  </g>
 </g>
</svg>
